Coordinates
version=1
nRows=15
nColumns=34
inDegrees=yes

Units are S.I. units (second, meters, Newtons, ...)
If the header above contains a line with 'inDegrees', this indicates whether rotational values are in degrees (yes) or radians (no).

endheader
time	pelvis_tilt	pelvis_list	pelvis_rotation	pelvis_tx	pelvis_ty	pelvis_tz	hip_flexion_r	hip_adduction_r	hip_rotation_r	knee_angle_r	ankle_angle_r	subtalar_angle_r	mtp_angle_r	hip_flexion_l	hip_adduction_l	hip_rotation_l	knee_angle_l	ankle_angle_l	subtalar_angle_l	mtp_angle_l	lumbar_extension	lumbar_bending	lumbar_rotation	arm_flex_r	arm_add_r	arm_rot_r	elbow_flex_r	pro_sup_r	arm_flex_l	arm_add_l	arm_rot_l	elbow_flex_l	pro_sup_l
      2.50000000	     -3.38269097	      0.18044777	      1.89008162	      0.84735876	      1.15595077	     -0.18414566	     -3.28761697	     -4.72456810	     -7.42633735	      0.00000000	      7.48430042	    -11.02796486	      0.00000000	      0.71214193	     -1.83556226	      1.40361336	      5.10322718	      6.75571412	    -10.68726031	      0.00000000	      2.68199555	     -0.62044995	     -1.20622013	     -8.85800155	     -6.10519664	    -19.96447317	     37.42906145	     86.96836539	     -6.40960810	    -10.57819470	     -2.50278105	     36.54943569	     88.92830818
      2.51666670	     -3.42962269	      0.12066097	      1.68628508	      0.84728247	      1.15613340	     -0.18446620	     -3.23901144	     -4.70445540	     -7.50984989	      0.00000000	      7.51025137	    -11.05579427	      0.00000000	      0.61278151	     -1.85804237	      1.44239224	      5.03797068	      6.82115126	    -10.71999993	      0.00000000	      2.70651385	     -0.66907248	     -1.03757490	     -8.67530405	     -6.08674932	    -19.94358524	     37.51666874	     86.98015427	     -6.60025899	    -10.64070093	     -2.52946791	     36.46807295	     88.94639159
      2.53333330	     -3.60397667	      0.11970442	      1.17210458	      0.84751939	      1.15617007	     -0.18346779	     -2.95814234	     -4.74779768	     -7.15770375	      0.00000000	      7.86331183	    -10.35519340	      0.00000000	      0.42153668	     -1.81065367	      1.15782612	      4.56417658	      6.77948671	    -11.15758072	      0.00000000	      2.97600031	     -0.61327115	     -0.86557849	     -8.78964032	     -6.24304005	    -18.89217780	     38.76884007	     87.57832296	     -7.19324420	    -10.38867098	     -3.82003325	     36.29886312	     89.75131914
      2.55000000	     -3.69752076	      0.12398387	      0.85987037	      0.84754176	      1.15631657	     -0.18364889	     -2.77088197	     -4.77708514	     -6.76815090	      0.00000000	      8.11104132	    -10.11622160	      0.00000000	      0.29461934	     -1.78097471	      1.01332351	      4.24759252	      6.75501374	    -11.19941536	      0.00000000	      3.02483175	     -0.68331236	     -0.76058614	     -8.33509748	     -6.09889510	    -18.73448307	     39.03077924	     87.65740782	     -7.49961834	    -10.38723435	     -3.93381245	     36.12852690	     89.88257041
      2.56666670	     -3.82479338	      0.08375008	      0.72760277	      0.84705174	      1.15988076	     -0.18279544	     -2.56951430	     -4.72090670	     -6.51062589	      0.00000000	      8.30040865	     -9.92616520	      0.00000000	      0.21130538	     -1.84280536	      1.05075289	      3.96780998	      6.67951110	    -11.11891256	      0.00000000	      2.98168159	     -0.67707344	     -0.72835080	     -8.02138678	     -5.87967435	    -18.53841503	     39.25149427	     87.71577220	     -7.46145625	    -10.45476813	     -4.03519712	     36.01164539	     89.95200452
      2.58333330	     -3.75059116	      0.01634834	      0.39471035	      0.84730707	      1.15600537	     -0.18314081	     -2.56063005	     -4.66713685	     -6.46491975	      0.00000000	      8.81063432	     -9.09885576	      0.00000000	     -0.05655451	     -1.91237405	      0.81842134	      3.76794193	      6.65720839	    -10.99684593	      0.00000000	      2.78414247	     -0.58297945	     -0.71906964	     -7.74283845	     -6.09829768	    -17.02628998	     40.14576942	     88.20678524	     -7.43843239	    -10.20279178	     -4.76048525	     35.22187969	     90.53304561
      2.60000000	     -3.82416158	     -0.00771232	      0.34746481	      0.84670257	      1.16025629	     -0.18258306	     -2.43384268	     -4.62477780	     -6.39710375	      0.00000000	      8.82453867	     -9.04536236	      0.00000000	      0.00623523	     -1.94877216	      0.84312626	      3.68038291	      6.65050129	    -11.00686457	      0.00000000	      2.65077599	     -0.64514404	     -0.67162325	     -7.58144687	     -5.83829255	    -16.92779760	     40.18484474	     88.22410763	     -7.44445448	    -10.17927093	     -4.75522242	     35.16657759	     90.55566497
      2.61666670	     -3.74066206	      0.09168938	      0.09685298	      0.84668738	      1.15735737	     -0.18258412	     -2.43984588	     -4.73422480	     -6.24179658	      0.00000000	      9.12153435	     -8.42004988	      0.00000000	     -0.08008868	     -1.84171449	      0.76776661	      3.62032601	      6.28657779	    -11.47896419	      0.00000000	      2.29721856	     -0.78006552	     -1.01691984	     -6.93603976	     -5.93169195	    -15.40261360	     39.87166635	     88.68235846	     -7.20840483	    -10.20206221	     -4.90945075	     34.13139744	     91.29035644
      2.63333330	     -3.88411646	      0.12746554	     -0.06846707	      0.83828732	      1.15918495	     -0.18575143	     -2.15542172	     -4.82570221	     -6.16681620	      0.00000000	      9.13409063	     -8.34221860	      0.00000000	      0.09667362	     -1.73984845	      0.76759537	      3.45207462	      6.29373261	    -11.49199016	      0.00000000	      2.08313518	     -0.75056119	     -1.03499349	     -6.65995254	     -5.82109290	    -15.33253861	     39.94280869	     88.69591902	     -7.01044488	    -10.08758918	     -4.87985743	     34.15691379	     91.31815694
      2.65000000	     -3.99334383	      0.25471558	     -0.20533036	      0.83808303	      1.15884731	     -0.18602411	     -1.89663863	     -5.03015715	     -6.05810360	      0.00000000	      9.02261885	     -8.14232239	      0.00000000	      0.44629800	     -1.55476281	      0.51640401	      3.65579870	      6.09029229	    -11.62931358	      0.00000000	      1.71636834	     -0.87944328	     -0.99555823	     -6.21045754	     -5.80613523	    -15.16340095	     40.03021183	     88.73438898	     -6.77634191	     -9.98494790	     -4.85692271	     34.07823517	     91.38985699
      2.66666670	     -4.07862678	      0.27579153	     -0.25650180	      0.83808144	      1.15866746	     -0.18545748	     -1.73122376	     -5.09388140	     -6.13162479	      0.00000000	      9.00054556	     -8.14053822	      0.00000000	      0.57637973	     -1.50366197	      0.49318910	      3.54288751	      6.04644162	    -11.64577454	      0.00000000	      1.44764698	     -0.87601743	     -0.90512873	     -6.12213076	     -5.75035535	    -15.09981710	     40.02387488	     88.74607220	     -6.84906769	     -9.84863772	     -4.82643038	     34.01031227	     91.40936422
      2.68333330	     -4.15015383	      0.33370239	     -0.30374712	      0.83788698	      1.15841807	     -0.18576989	     -1.52484167	     -5.20672088	     -6.16573481	      0.00000000	      8.81526185	     -7.98153610	      0.00000000	      0.77037635	     -1.41448513	      0.42846639	      3.57402540	      5.78229825	    -11.71026153	      0.00000000	      1.06476073	     -0.90093218	     -0.82440234	     -5.82823639	     -5.81081949	    -14.88383127	     40.01869517	     88.79744289	     -6.67194824	     -9.68310592	     -4.81673367	     33.86921347	     91.48425962
      2.70000000	     -4.17212291	      0.32463464	     -0.27041245	      0.83792759	      1.15476999	     -0.18545929	     -1.46148779	     -5.21800776	     -6.19883866	      0.00000000	      8.81367038	     -7.98236553	      0.00000000	      0.83235668	     -1.42502446	      0.47097066	      3.54957076	      5.77365919	    -11.70502929	      0.00000000	      0.83913869	     -0.92255590	     -0.70973726	     -5.86051746	     -5.79990073	    -14.84510403	     39.97837204	     88.80657910	     -6.89672426	     -9.60308671	     -4.80237842	     33.74967491	     91.49695224
      2.71666670	     -4.20617453	      0.33168591	     -0.26665094	      0.83818704	      1.15869716	     -0.18560704	     -1.37882097	     -5.24858408	     -6.25218942	      0.00000000	      8.77201528	     -7.98030678	      0.00000000	      0.92721063	     -1.40170960	      0.50846679	      3.49804624	      5.75652067	    -11.70200267	      0.00000000	      0.54902317	     -0.90035966	     -0.65706216	     -5.99801729	     -5.75910065	    -14.79361612	     39.87691003	     88.81848459	     -7.08564899	     -9.49557023	     -4.78478064	     33.62643362	     91.51151222
      2.73333330	     -3.80899277	      0.37514953	     -0.13272443	      0.83775688	      1.15567637	     -0.18547686	     -1.81300934	     -5.32918638	     -6.70216460	      0.00000000	      8.55814485	     -7.87291951	      0.00000000	      0.56662813	     -1.33072015	      0.78843555	      3.46811262	      5.47020433	    -12.21069108	      0.00000000	     -0.14845049	     -0.97868827	     -0.56243788	     -5.76584099	     -6.10461766	    -13.43135644	     38.82919769	     89.22979424	     -6.55840506	     -9.19609531	     -5.05893013	     32.39717234	     91.97505526
